<svg width="31" height="31" viewBox="0 0 31 31" fill="none" xmlns="http://www.w3.org/2000/svg">
<path id="Vector" d="M29.76 0H1.24C0.554125 0 0 0.554125 0 1.24V29.76C0 30.4459 0.554125 31 1.24 31H29.76C30.4459 31 31 30.4459 31 29.76V1.24C31 0.554125 30.4459 0 29.76 0ZM28.52 28.52H21.3861V18.9952H25.4161L26.0206 14.3181H21.3861V11.3305C21.3861 9.97425 21.762 9.052 23.7034 9.052H26.1795V4.867C25.7494 4.80887 24.2807 4.681 22.568 4.681C18.9952 4.681 16.5501 6.86263 16.5501 10.8655V14.3142H12.5124V18.9914H16.554V28.52H2.48V2.48H28.52V28.52Z" fill="black"/>
</svg>
