<svg width="37" height="37" viewBox="0 0 37 37" fill="none" xmlns="http://www.w3.org/2000/svg">
<g id="akar-icons:instagram-fill">
<path id="Vector" fill-rule="evenodd" clip-rule="evenodd" d="M11.5085 1.64342C13.3169 1.56017 13.8935 1.54167 18.5 1.54167C23.1065 1.54167 23.6831 1.56171 25.4899 1.64342C27.2967 1.72513 28.5301 2.01342 29.6092 2.43121C30.7393 2.85826 31.7645 3.5258 32.6124 4.38913C33.4757 5.2355 34.1417 6.25917 34.5672 7.39075C34.9866 8.46992 35.2733 9.70325 35.3566 11.507C35.4398 13.3185 35.4583 13.895 35.4583 18.5C35.4583 23.1065 35.4383 23.6831 35.3566 25.4915C35.2749 27.2952 34.9866 28.5285 34.5672 29.6077C34.1417 30.7394 33.4746 31.7648 32.6124 32.6124C31.7645 33.4758 30.7393 34.1418 29.6092 34.5673C28.5301 34.9866 27.2967 35.2733 25.493 35.3566C23.6831 35.4398 23.1065 35.4583 18.5 35.4583C13.8935 35.4583 13.3169 35.4383 11.5085 35.3566C9.70479 35.2749 8.47146 34.9866 7.39229 34.5673C6.26058 34.1417 5.23522 33.4746 4.38758 32.6124C3.52483 31.7655 2.85719 30.7407 2.43121 29.6093C2.01341 28.5301 1.72666 27.2968 1.64341 25.493C1.56016 23.6815 1.54166 23.105 1.54166 18.5C1.54166 13.8935 1.56171 13.3169 1.64341 11.5101C1.72512 9.70325 2.01341 8.46992 2.43121 7.39075C2.85782 6.2593 3.52597 5.23445 4.38912 4.38759C5.23556 3.52503 6.25989 2.8574 7.39075 2.43121C8.46991 2.01342 9.70325 1.72667 11.507 1.64342H11.5085ZM25.3527 4.69592C23.5644 4.61421 23.0279 4.59726 18.5 4.59726C13.9721 4.59726 13.4356 4.61421 11.6473 4.69592C9.99308 4.77146 9.09583 5.04742 8.49766 5.28021C7.70679 5.58855 7.141 5.95392 6.54746 6.54746C5.98482 7.09483 5.55182 7.76119 5.28021 8.49767C5.04741 9.09584 4.77146 9.99309 4.69591 11.6473C4.61421 13.4356 4.59725 13.9721 4.59725 18.5C4.59725 23.0279 4.61421 23.5644 4.69591 25.3527C4.77146 27.0069 5.04741 27.9042 5.28021 28.5023C5.55154 29.2377 5.98475 29.9053 6.54746 30.4525C7.09475 31.0153 7.76229 31.4485 8.49766 31.7198C9.09583 31.9526 9.99308 32.2285 11.6473 32.3041C13.4356 32.3858 13.9706 32.4028 18.5 32.4028C23.0294 32.4028 23.5644 32.3858 25.3527 32.3041C27.0069 32.2285 27.9042 31.9526 28.5023 31.7198C29.2932 31.4115 29.859 31.0461 30.4525 30.4525C31.0152 29.9053 31.4485 29.2377 31.7198 28.5023C31.9526 27.9042 32.2285 27.0069 32.3041 25.3527C32.3858 23.5644 32.4027 23.0279 32.4027 18.5C32.4027 13.9721 32.3858 13.4356 32.3041 11.6473C32.2285 9.99309 31.9526 9.09584 31.7198 8.49767C31.4115 7.7068 31.0461 7.14101 30.4525 6.54746C29.9051 5.98486 29.2388 5.55187 28.5023 5.28021C27.9042 5.04742 27.0069 4.77146 25.3527 4.69592ZM16.334 23.7278C17.5436 24.2314 18.8906 24.2993 20.1448 23.9201C21.3991 23.5408 22.4827 22.7379 23.2107 21.6485C23.9387 20.559 24.2659 19.2506 24.1364 17.9467C24.0069 16.6428 23.4287 15.4243 22.5006 14.4994C21.909 13.9081 21.1936 13.4554 20.406 13.1738C19.6184 12.8922 18.7782 12.7887 17.9458 12.8708C17.1134 12.9529 16.3095 13.2185 15.5921 13.6486C14.8747 14.0786 14.2616 14.6624 13.7968 15.3579C13.3321 16.0533 13.0274 16.8432 12.9045 17.6705C12.7817 18.4979 12.8439 19.3422 13.0865 20.1427C13.3291 20.9431 13.7462 21.6799 14.3078 22.2998C14.8693 22.9197 15.5613 23.4074 16.334 23.7278ZM12.3364 12.3364C13.1458 11.527 14.1067 10.8849 15.1643 10.4469C16.2218 10.0088 17.3553 9.78338 18.5 9.78338C19.6447 9.78338 20.7782 10.0088 21.8357 10.4469C22.8933 10.8849 23.8542 11.527 24.6636 12.3364C25.473 13.1458 26.1151 14.1067 26.5531 15.1643C26.9912 16.2218 27.2166 17.3553 27.2166 18.5C27.2166 19.6447 26.9912 20.7782 26.5531 21.8357C26.1151 22.8933 25.473 23.8542 24.6636 24.6636C23.0289 26.2983 20.8118 27.2166 18.5 27.2166C16.1882 27.2166 13.9711 26.2983 12.3364 24.6636C10.7017 23.0289 9.78337 20.8118 9.78337 18.5C9.78337 16.1882 10.7017 13.9711 12.3364 12.3364ZM29.1498 11.0815C29.3504 10.8923 29.511 10.6648 29.622 10.4124C29.7331 10.16 29.7924 9.8879 29.7964 9.61219C29.8004 9.33648 29.7491 9.06277 29.6454 8.80725C29.5418 8.55174 29.3879 8.31963 29.1929 8.12465C28.998 7.92967 28.7658 7.7758 28.5103 7.67214C28.2548 7.56848 27.9811 7.51713 27.7054 7.52115C27.4297 7.52517 27.1576 7.58447 26.9052 7.69554C26.6528 7.8066 26.4253 7.96718 26.2361 8.16775C25.8681 8.55784 25.6666 9.07598 25.6745 9.61219C25.6823 10.1484 25.8988 10.6604 26.2779 11.0396C26.6571 11.4188 27.1692 11.6353 27.7054 11.6431C28.2416 11.6509 28.7597 11.4495 29.1498 11.0815Z" fill="black"/>
</g>
</svg>
